# xmcd
#
# Track frame offsets:
#	150
#	18544
#	45409
#	74434
#	93364
#	121428
#	146758
#	177663
#	199049
#
# Disc length: 2958 seconds
#
# Revision: 5
# Processed by: cddbd v1.5.1PL0 Copyright (c) Steve Scherf et al.
# Submitted via: audiograbber 1.83.01
#
DISCID=820b8c09
DTITLE=Robin Bibi Band - Live Therapy Disc 2
DYEAR=1900
DGENRE=Blues
TTITLE0=(Royal) Sonesta Stomp
TTITLE1=Sweet Home Alabama
TTITLE2=Albatross
TTITLE3=Never Fade Away
TTITLE4=Come Together
TTITLE5=Misirlou - Wipeout
TTITLE6=Got My Mojo Working
TTITLE7=Rock With Me
TTITLE8=(Up All Night) Vampire Blues
EXTD=
EXTT0=
EXTT1=
EXTT2=
EXTT3=
EXTT4=
EXTT5=
EXTT6=
EXTT7=
EXTT8=
PLAYORDER=
